<mxfile host="app.diagrams.net" modified="2023-08-13T00:23:41.997Z" agent="Mozilla/5.0 (X11; Linux x86_64) AppleWebKit/537.36 (KHTML, like Gecko) Chrome/115.0.0.0 Safari/537.36" etag="3_yXhuFv3c1llzjAI8iv" version="21.6.6" type="github">
  <diagram name="Page-1" id="dwJa4rqnvtMt_0H55CX9">
    <mxGraphModel dx="1050" dy="523" grid="1" gridSize="10" guides="1" tooltips="1" connect="1" arrows="1" fold="1" page="1" pageScale="1" pageWidth="827" pageHeight="1169" math="0" shadow="0">
      <root>
        <mxCell id="0" />
        <mxCell id="1" parent="0" />
        <mxCell id="V-kZgoUyX1T6yPYuiuRt-23" value="" style="group" vertex="1" connectable="0" parent="1">
          <mxGeometry x="14" y="80" width="400" height="300" as="geometry" />
        </mxCell>
        <mxCell id="V-kZgoUyX1T6yPYuiuRt-16" value="" style="group" vertex="1" connectable="0" parent="V-kZgoUyX1T6yPYuiuRt-23">
          <mxGeometry y="20" width="400" height="280" as="geometry" />
        </mxCell>
        <mxCell id="V-kZgoUyX1T6yPYuiuRt-1" value="CLK" style="shape=step;perimeter=stepPerimeter;whiteSpace=wrap;html=1;fixedSize=1;" vertex="1" parent="V-kZgoUyX1T6yPYuiuRt-16">
          <mxGeometry width="110" height="40" as="geometry" />
        </mxCell>
        <mxCell id="V-kZgoUyX1T6yPYuiuRt-2" value="Button 1" style="shape=step;perimeter=stepPerimeter;whiteSpace=wrap;html=1;fixedSize=1;" vertex="1" parent="V-kZgoUyX1T6yPYuiuRt-16">
          <mxGeometry y="60" width="110" height="40" as="geometry" />
        </mxCell>
        <mxCell id="V-kZgoUyX1T6yPYuiuRt-3" value="Button 2" style="shape=step;perimeter=stepPerimeter;whiteSpace=wrap;html=1;fixedSize=1;" vertex="1" parent="V-kZgoUyX1T6yPYuiuRt-16">
          <mxGeometry y="120" width="110" height="40" as="geometry" />
        </mxCell>
        <mxCell id="V-kZgoUyX1T6yPYuiuRt-4" value="Reset" style="shape=step;perimeter=stepPerimeter;whiteSpace=wrap;html=1;fixedSize=1;" vertex="1" parent="V-kZgoUyX1T6yPYuiuRt-16">
          <mxGeometry y="180" width="110" height="40" as="geometry" />
        </mxCell>
        <mxCell id="V-kZgoUyX1T6yPYuiuRt-5" value="Inputs" style="shape=step;perimeter=stepPerimeter;whiteSpace=wrap;html=1;fixedSize=1;" vertex="1" parent="V-kZgoUyX1T6yPYuiuRt-16">
          <mxGeometry y="240" width="110" height="40" as="geometry" />
        </mxCell>
        <mxCell id="V-kZgoUyX1T6yPYuiuRt-6" value="CLK Divider" style="rounded=0;whiteSpace=wrap;html=1;" vertex="1" parent="V-kZgoUyX1T6yPYuiuRt-16">
          <mxGeometry x="140" width="106" height="40" as="geometry" />
        </mxCell>
        <mxCell id="V-kZgoUyX1T6yPYuiuRt-7" value="Register Allocation" style="rounded=0;whiteSpace=wrap;html=1;" vertex="1" parent="V-kZgoUyX1T6yPYuiuRt-16">
          <mxGeometry x="280" width="120" height="280" as="geometry" />
        </mxCell>
        <mxCell id="V-kZgoUyX1T6yPYuiuRt-8" value="" style="endArrow=classic;html=1;rounded=0;exitX=1;exitY=0.5;exitDx=0;exitDy=0;entryX=0.003;entryY=0.924;entryDx=0;entryDy=0;entryPerimeter=0;" edge="1" parent="V-kZgoUyX1T6yPYuiuRt-16" source="V-kZgoUyX1T6yPYuiuRt-5" target="V-kZgoUyX1T6yPYuiuRt-7">
          <mxGeometry width="50" height="50" relative="1" as="geometry">
            <mxPoint x="270" y="200" as="sourcePoint" />
            <mxPoint x="320" y="150" as="targetPoint" />
          </mxGeometry>
        </mxCell>
        <mxCell id="V-kZgoUyX1T6yPYuiuRt-9" value="" style="endArrow=classic;html=1;rounded=0;exitX=1;exitY=0.5;exitDx=0;exitDy=0;entryX=0.003;entryY=0.924;entryDx=0;entryDy=0;entryPerimeter=0;" edge="1" parent="V-kZgoUyX1T6yPYuiuRt-16">
          <mxGeometry width="50" height="50" relative="1" as="geometry">
            <mxPoint x="110" y="80.5" as="sourcePoint" />
            <mxPoint x="280" y="79.5" as="targetPoint" />
          </mxGeometry>
        </mxCell>
        <mxCell id="V-kZgoUyX1T6yPYuiuRt-10" value="" style="endArrow=classic;html=1;rounded=0;exitX=1;exitY=0.5;exitDx=0;exitDy=0;entryX=0.003;entryY=0.924;entryDx=0;entryDy=0;entryPerimeter=0;" edge="1" parent="V-kZgoUyX1T6yPYuiuRt-16">
          <mxGeometry width="50" height="50" relative="1" as="geometry">
            <mxPoint x="110" y="140.5" as="sourcePoint" />
            <mxPoint x="280" y="139.5" as="targetPoint" />
          </mxGeometry>
        </mxCell>
        <mxCell id="V-kZgoUyX1T6yPYuiuRt-11" value="" style="endArrow=classic;html=1;rounded=0;exitX=1;exitY=0.5;exitDx=0;exitDy=0;entryX=0.003;entryY=0.924;entryDx=0;entryDy=0;entryPerimeter=0;" edge="1" parent="V-kZgoUyX1T6yPYuiuRt-16">
          <mxGeometry width="50" height="50" relative="1" as="geometry">
            <mxPoint x="110" y="200.5" as="sourcePoint" />
            <mxPoint x="280" y="199.5" as="targetPoint" />
          </mxGeometry>
        </mxCell>
        <mxCell id="V-kZgoUyX1T6yPYuiuRt-12" value="" style="endArrow=none;html=1;rounded=0;" edge="1" parent="V-kZgoUyX1T6yPYuiuRt-16">
          <mxGeometry width="50" height="50" relative="1" as="geometry">
            <mxPoint x="170" y="267.5" as="sourcePoint" />
            <mxPoint x="190" y="252.5" as="targetPoint" />
          </mxGeometry>
        </mxCell>
        <mxCell id="V-kZgoUyX1T6yPYuiuRt-13" value="" style="endArrow=none;html=1;rounded=0;" edge="1" parent="V-kZgoUyX1T6yPYuiuRt-16">
          <mxGeometry width="50" height="50" relative="1" as="geometry">
            <mxPoint x="183" y="267.5" as="sourcePoint" />
            <mxPoint x="203" y="252.5" as="targetPoint" />
          </mxGeometry>
        </mxCell>
        <mxCell id="V-kZgoUyX1T6yPYuiuRt-14" value="" style="endArrow=classic;html=1;rounded=0;exitX=1;exitY=0.5;exitDx=0;exitDy=0;entryX=0;entryY=0.5;entryDx=0;entryDy=0;" edge="1" parent="V-kZgoUyX1T6yPYuiuRt-16" source="V-kZgoUyX1T6yPYuiuRt-1" target="V-kZgoUyX1T6yPYuiuRt-6">
          <mxGeometry width="50" height="50" relative="1" as="geometry">
            <mxPoint x="120" y="90.5" as="sourcePoint" />
            <mxPoint x="290" y="89.5" as="targetPoint" />
          </mxGeometry>
        </mxCell>
        <mxCell id="V-kZgoUyX1T6yPYuiuRt-15" value="" style="endArrow=classic;html=1;rounded=0;exitX=1;exitY=0.5;exitDx=0;exitDy=0;" edge="1" parent="V-kZgoUyX1T6yPYuiuRt-16" source="V-kZgoUyX1T6yPYuiuRt-6">
          <mxGeometry width="50" height="50" relative="1" as="geometry">
            <mxPoint x="246" y="19.5" as="sourcePoint" />
            <mxPoint x="280" y="20" as="targetPoint" />
          </mxGeometry>
        </mxCell>
        <mxCell id="V-kZgoUyX1T6yPYuiuRt-17" value="&lt;font style=&quot;font-size: 12px;&quot;&gt;btn_1&lt;/font&gt;" style="strokeWidth=1;shadow=0;dashed=0;align=center;html=1;shape=mxgraph.mockup.text.textBox;fontColor=#666666;align=left;fontSize=17;spacingLeft=4;spacingTop=-3;whiteSpace=wrap;strokeColor=#000000;mainText=;opacity=0;" vertex="1" parent="V-kZgoUyX1T6yPYuiuRt-16">
          <mxGeometry x="110" y="60" width="40" height="20" as="geometry" />
        </mxCell>
        <mxCell id="V-kZgoUyX1T6yPYuiuRt-19" value="&lt;font style=&quot;font-size: 12px;&quot;&gt;btn_2&lt;/font&gt;" style="strokeWidth=1;shadow=0;dashed=0;align=center;html=1;shape=mxgraph.mockup.text.textBox;fontColor=#666666;align=left;fontSize=17;spacingLeft=4;spacingTop=-3;whiteSpace=wrap;strokeColor=#000000;mainText=;opacity=0;" vertex="1" parent="V-kZgoUyX1T6yPYuiuRt-16">
          <mxGeometry x="110" y="120" width="40" height="20" as="geometry" />
        </mxCell>
        <mxCell id="V-kZgoUyX1T6yPYuiuRt-18" value="&lt;font style=&quot;font-size: 12px;&quot;&gt;rst&lt;/font&gt;" style="strokeWidth=1;shadow=0;dashed=0;align=center;html=1;shape=mxgraph.mockup.text.textBox;fontColor=#666666;align=left;fontSize=17;spacingLeft=4;spacingTop=-3;whiteSpace=wrap;strokeColor=#000000;mainText=;opacity=0;" vertex="1" parent="V-kZgoUyX1T6yPYuiuRt-16">
          <mxGeometry x="110" y="180" width="40" height="20" as="geometry" />
        </mxCell>
        <mxCell id="V-kZgoUyX1T6yPYuiuRt-20" value="&lt;font style=&quot;font-size: 12px;&quot;&gt;inputs(7 downto 0)&lt;/font&gt;" style="strokeWidth=1;shadow=0;dashed=0;align=center;html=1;shape=mxgraph.mockup.text.textBox;fontColor=#666666;align=left;fontSize=17;spacingLeft=4;spacingTop=-3;whiteSpace=wrap;strokeColor=#000000;mainText=;opacity=0;" vertex="1" parent="V-kZgoUyX1T6yPYuiuRt-16">
          <mxGeometry x="100" y="230" width="110" height="20" as="geometry" />
        </mxCell>
        <mxCell id="V-kZgoUyX1T6yPYuiuRt-21" value="&lt;font style=&quot;font-size: 12px;&quot;&gt;clk_in&lt;/font&gt;" style="strokeWidth=1;shadow=0;dashed=0;align=center;html=1;shape=mxgraph.mockup.text.textBox;fontColor=#666666;align=left;fontSize=17;spacingLeft=4;spacingTop=-3;whiteSpace=wrap;strokeColor=#000000;mainText=;opacity=0;" vertex="1" parent="V-kZgoUyX1T6yPYuiuRt-16">
          <mxGeometry x="100" y="-20" width="40" height="20" as="geometry" />
        </mxCell>
        <mxCell id="V-kZgoUyX1T6yPYuiuRt-22" value="&lt;font style=&quot;font-size: 12px;&quot;&gt;clk_out&lt;/font&gt;" style="strokeWidth=1;shadow=0;dashed=0;align=center;html=1;shape=mxgraph.mockup.text.textBox;fontColor=#666666;align=left;fontSize=17;spacingLeft=4;spacingTop=-3;whiteSpace=wrap;strokeColor=#000000;mainText=;opacity=0;" vertex="1" parent="V-kZgoUyX1T6yPYuiuRt-23">
          <mxGeometry x="240" width="50" height="20" as="geometry" />
        </mxCell>
        <mxCell id="V-kZgoUyX1T6yPYuiuRt-26" value="" style="endArrow=none;html=1;rounded=0;entryX=1;entryY=0.5;entryDx=0;entryDy=0;" edge="1" parent="1" target="V-kZgoUyX1T6yPYuiuRt-7">
          <mxGeometry width="50" height="50" relative="1" as="geometry">
            <mxPoint x="520" y="240" as="sourcePoint" />
            <mxPoint x="440" y="250" as="targetPoint" />
          </mxGeometry>
        </mxCell>
        <mxCell id="V-kZgoUyX1T6yPYuiuRt-34" value="" style="group" vertex="1" connectable="0" parent="1">
          <mxGeometry x="430" y="230" width="30" height="15" as="geometry" />
        </mxCell>
        <mxCell id="V-kZgoUyX1T6yPYuiuRt-31" value="" style="endArrow=none;html=1;rounded=0;" edge="1" parent="V-kZgoUyX1T6yPYuiuRt-34">
          <mxGeometry width="50" height="50" relative="1" as="geometry">
            <mxPoint y="15" as="sourcePoint" />
            <mxPoint x="20" as="targetPoint" />
          </mxGeometry>
        </mxCell>
        <mxCell id="V-kZgoUyX1T6yPYuiuRt-32" value="" style="endArrow=none;html=1;rounded=0;" edge="1" parent="V-kZgoUyX1T6yPYuiuRt-34">
          <mxGeometry width="50" height="50" relative="1" as="geometry">
            <mxPoint x="10" y="15" as="sourcePoint" />
            <mxPoint x="30" as="targetPoint" />
          </mxGeometry>
        </mxCell>
        <mxCell id="V-kZgoUyX1T6yPYuiuRt-35" value="&lt;font style=&quot;font-size: 12px;&quot;&gt;thick_buff &lt;br&gt;(15 downto 0)&lt;/font&gt;" style="strokeWidth=1;shadow=0;dashed=0;align=center;html=1;shape=mxgraph.mockup.text.textBox;fontColor=#666666;align=left;fontSize=17;spacingLeft=4;spacingTop=-3;whiteSpace=wrap;strokeColor=#000000;mainText=;opacity=0;" vertex="1" parent="1">
          <mxGeometry x="420" y="200" width="90" height="20" as="geometry" />
        </mxCell>
        <mxCell id="V-kZgoUyX1T6yPYuiuRt-24" value="Lock System" style="rounded=0;whiteSpace=wrap;html=1;" vertex="1" parent="1">
          <mxGeometry x="580" y="160" width="106" height="40" as="geometry" />
        </mxCell>
        <mxCell id="V-kZgoUyX1T6yPYuiuRt-25" value="Seven Seg Decoder" style="rounded=0;whiteSpace=wrap;html=1;" vertex="1" parent="1">
          <mxGeometry x="580" y="280" width="106" height="40" as="geometry" />
        </mxCell>
        <mxCell id="V-kZgoUyX1T6yPYuiuRt-27" value="" style="endArrow=none;html=1;rounded=0;" edge="1" parent="1">
          <mxGeometry width="50" height="50" relative="1" as="geometry">
            <mxPoint x="520" y="290" as="sourcePoint" />
            <mxPoint x="520" y="180" as="targetPoint" />
          </mxGeometry>
        </mxCell>
        <mxCell id="V-kZgoUyX1T6yPYuiuRt-28" value="" style="endArrow=classic;html=1;rounded=0;entryX=0;entryY=0.5;entryDx=0;entryDy=0;" edge="1" parent="1" target="V-kZgoUyX1T6yPYuiuRt-24">
          <mxGeometry width="50" height="50" relative="1" as="geometry">
            <mxPoint x="520" y="180" as="sourcePoint" />
            <mxPoint x="380" y="250" as="targetPoint" />
          </mxGeometry>
        </mxCell>
        <mxCell id="V-kZgoUyX1T6yPYuiuRt-40" value="" style="endArrow=classic;html=1;rounded=0;entryX=0;entryY=0.5;entryDx=0;entryDy=0;" edge="1" parent="1">
          <mxGeometry width="50" height="50" relative="1" as="geometry">
            <mxPoint x="520" y="290" as="sourcePoint" />
            <mxPoint x="580" y="290" as="targetPoint" />
          </mxGeometry>
        </mxCell>
        <mxCell id="V-kZgoUyX1T6yPYuiuRt-42" value="" style="endArrow=classic;html=1;rounded=0;entryX=0;entryY=0.75;entryDx=0;entryDy=0;exitX=1;exitY=0.75;exitDx=0;exitDy=0;" edge="1" parent="1" source="V-kZgoUyX1T6yPYuiuRt-7" target="V-kZgoUyX1T6yPYuiuRt-25">
          <mxGeometry width="50" height="50" relative="1" as="geometry">
            <mxPoint x="390" y="300" as="sourcePoint" />
            <mxPoint x="440" y="250" as="targetPoint" />
          </mxGeometry>
        </mxCell>
        <mxCell id="V-kZgoUyX1T6yPYuiuRt-43" value="&lt;font style=&quot;font-size: 12px;&quot;&gt;clk_line&lt;/font&gt;" style="strokeWidth=1;shadow=0;dashed=0;align=center;html=1;shape=mxgraph.mockup.text.textBox;fontColor=#666666;align=left;fontSize=17;spacingLeft=4;spacingTop=-3;whiteSpace=wrap;strokeColor=#000000;mainText=;opacity=0;" vertex="1" parent="1">
          <mxGeometry x="414" y="290" width="40" height="20" as="geometry" />
        </mxCell>
        <mxCell id="V-kZgoUyX1T6yPYuiuRt-44" value="" style="endArrow=classic;html=1;rounded=0;entryX=0;entryY=0.5;entryDx=0;entryDy=0;" edge="1" parent="1">
          <mxGeometry width="50" height="50" relative="1" as="geometry">
            <mxPoint x="686" y="190" as="sourcePoint" />
            <mxPoint x="746" y="190" as="targetPoint" />
          </mxGeometry>
        </mxCell>
        <mxCell id="V-kZgoUyX1T6yPYuiuRt-46" value="" style="endArrow=classic;html=1;rounded=0;entryX=0;entryY=0.5;entryDx=0;entryDy=0;" edge="1" parent="1">
          <mxGeometry width="50" height="50" relative="1" as="geometry">
            <mxPoint x="686" y="170" as="sourcePoint" />
            <mxPoint x="746" y="170" as="targetPoint" />
          </mxGeometry>
        </mxCell>
        <mxCell id="V-kZgoUyX1T6yPYuiuRt-47" value="&lt;span style=&quot;font-size: 12px;&quot;&gt;lock&lt;/span&gt;" style="strokeWidth=1;shadow=0;dashed=0;align=center;html=1;shape=mxgraph.mockup.text.textBox;fontColor=#666666;align=left;fontSize=17;spacingLeft=4;spacingTop=-3;whiteSpace=wrap;strokeColor=#000000;mainText=;opacity=0;" vertex="1" parent="1">
          <mxGeometry x="750" y="160" width="40" height="20" as="geometry" />
        </mxCell>
        <mxCell id="V-kZgoUyX1T6yPYuiuRt-48" value="&lt;font style=&quot;font-size: 12px;&quot;&gt;unlock&lt;/font&gt;" style="strokeWidth=1;shadow=0;dashed=0;align=center;html=1;shape=mxgraph.mockup.text.textBox;fontColor=#666666;align=left;fontSize=17;spacingLeft=4;spacingTop=-3;whiteSpace=wrap;strokeColor=#000000;mainText=;opacity=0;" vertex="1" parent="1">
          <mxGeometry x="750" y="180" width="40" height="20" as="geometry" />
        </mxCell>
        <mxCell id="V-kZgoUyX1T6yPYuiuRt-49" value="" style="endArrow=classic;html=1;rounded=0;entryX=0;entryY=0.5;entryDx=0;entryDy=0;" edge="1" parent="1">
          <mxGeometry width="50" height="50" relative="1" as="geometry">
            <mxPoint x="686" y="299.5" as="sourcePoint" />
            <mxPoint x="746" y="299.5" as="targetPoint" />
          </mxGeometry>
        </mxCell>
        <mxCell id="V-kZgoUyX1T6yPYuiuRt-50" value="&lt;font style=&quot;font-size: 12px;&quot;&gt;SS Digits&lt;/font&gt;" style="strokeWidth=1;shadow=0;dashed=0;align=center;html=1;shape=mxgraph.mockup.text.textBox;fontColor=#666666;align=left;fontSize=17;spacingLeft=4;spacingTop=-3;whiteSpace=wrap;strokeColor=#000000;mainText=;opacity=0;" vertex="1" parent="1">
          <mxGeometry x="750" y="290" width="40" height="20" as="geometry" />
        </mxCell>
        <mxCell id="V-kZgoUyX1T6yPYuiuRt-51" value="" style="endArrow=classic;html=1;rounded=0;exitX=1;exitY=0.75;exitDx=0;exitDy=0;" edge="1" parent="1">
          <mxGeometry width="50" height="50" relative="1" as="geometry">
            <mxPoint x="414" y="360" as="sourcePoint" />
            <mxPoint x="740" y="360" as="targetPoint" />
          </mxGeometry>
        </mxCell>
        <mxCell id="V-kZgoUyX1T6yPYuiuRt-52" value="&lt;font style=&quot;font-size: 12px;&quot;&gt;SS Anodes&lt;/font&gt;" style="strokeWidth=1;shadow=0;dashed=0;align=center;html=1;shape=mxgraph.mockup.text.textBox;fontColor=#666666;align=left;fontSize=17;spacingLeft=4;spacingTop=-3;whiteSpace=wrap;strokeColor=#000000;mainText=;opacity=0;" vertex="1" parent="1">
          <mxGeometry x="750" y="350" width="40" height="20" as="geometry" />
        </mxCell>
        <mxCell id="V-kZgoUyX1T6yPYuiuRt-53" value="" style="group" vertex="1" connectable="0" parent="1">
          <mxGeometry x="690" y="290" width="30" height="15" as="geometry" />
        </mxCell>
        <mxCell id="V-kZgoUyX1T6yPYuiuRt-54" value="" style="endArrow=none;html=1;rounded=0;" edge="1" parent="V-kZgoUyX1T6yPYuiuRt-53">
          <mxGeometry width="50" height="50" relative="1" as="geometry">
            <mxPoint y="15" as="sourcePoint" />
            <mxPoint x="20" as="targetPoint" />
          </mxGeometry>
        </mxCell>
        <mxCell id="V-kZgoUyX1T6yPYuiuRt-55" value="" style="endArrow=none;html=1;rounded=0;" edge="1" parent="V-kZgoUyX1T6yPYuiuRt-53">
          <mxGeometry width="50" height="50" relative="1" as="geometry">
            <mxPoint x="10" y="15" as="sourcePoint" />
            <mxPoint x="30" as="targetPoint" />
          </mxGeometry>
        </mxCell>
        <mxCell id="V-kZgoUyX1T6yPYuiuRt-56" value="" style="group" vertex="1" connectable="0" parent="1">
          <mxGeometry x="560" y="350" width="30" height="15" as="geometry" />
        </mxCell>
        <mxCell id="V-kZgoUyX1T6yPYuiuRt-57" value="" style="endArrow=none;html=1;rounded=0;" edge="1" parent="V-kZgoUyX1T6yPYuiuRt-56">
          <mxGeometry width="50" height="50" relative="1" as="geometry">
            <mxPoint y="15" as="sourcePoint" />
            <mxPoint x="20" as="targetPoint" />
          </mxGeometry>
        </mxCell>
        <mxCell id="V-kZgoUyX1T6yPYuiuRt-58" value="" style="endArrow=none;html=1;rounded=0;" edge="1" parent="V-kZgoUyX1T6yPYuiuRt-56">
          <mxGeometry width="50" height="50" relative="1" as="geometry">
            <mxPoint x="10" y="15" as="sourcePoint" />
            <mxPoint x="30" as="targetPoint" />
          </mxGeometry>
        </mxCell>
      </root>
    </mxGraphModel>
  </diagram>
</mxfile>
